#N canvas 152 94 628 744 10;
#X obj 307 634 udpsend;
#X obj 307 564 packOSC;
#X msg 373 564 connect 192.168.1.10 2222;
#X msg 373 596 disconnect;
#X msg 307 532 sendtyped /set/rgb fff \$1 \$2 \$3;
#X obj 49 318 vsl 15 255 0 1 0 0 empty empty empty 0 -9 0 10 -262144
-1 -1 25383 1;
#X obj 107 318 vsl 15 255 0 1 0 0 empty empty empty 0 -9 0 10 -262144
-1 -1 0 1;
#X obj 167 318 vsl 15 255 0 1 0 0 empty empty empty 0 -9 0 10 -262144
-1 -1 17 1;
#X obj 461 -1 bng 15 250 50 0 empty empty empty 17 7 0 10 -262144 -1
-1;
#X msg 461 30 mode any;
#X obj 461 -30 loadbang;
#X msg 365 37 0;
#X obj 49 -26 ctlin;
#X floatatom 88 5 5 0 0 0 - - -;
#X floatatom 49 5 5 0 0 0 - - -;
#X obj 49 103 pack \$1 \$2;
#X obj 49 37 buddy 2;
#X obj 88 70 / 127;
#X obj 116 246 hsi2rgb;
#X obj 116 178 * 360;
#X obj 116 212 sync 3;
#X obj 469 192 sel 1;
#X obj 469 260 phasor~;
#X obj 469 294 snapshot~;
#X obj 532 192 sel 1;
#X msg 532 226 0;
#X obj 469 226 sig~ 1;
#X obj 49 137 route 14 15 16 17 18 19 45 46 20;
#X obj 217 177 expr (2*$f1-1);
#X msg 184 177 10;
#X obj 184 246 pow 1;
#X obj 184 212 sync 2;
#X text 306 370 Communications Block (IP address of light);
#X text 104 -25 MIDI Routing Block (all values scaled to 0-1);
#X text 63 638 Actual RGB Values;
#X text 377 -57 Load Bang to Initialize all Settings;
#X text 342 313 Metronome/snapshot to handle rate limiting.;
#X text 82 265 HSI->RGB conversion;
#X text 135 41 14 \, 15 \, 16 -> RGB Dials 17 \, 18 \, 19 -> HSI Dials
45 -> Start Hue Cycling 46 -> Stop Hue Cycling 20 -> Speed of Cycling
;
#X text 234 198 Hue Spin Conversion from 0-1 MIDI value to 0.1-10Hz
frequency for phasor.;
#X obj 49 590 * 255;
#X floatatom 49 615 5 0 0 0 - - -;
#X obj 107 590 * 255;
#X floatatom 107 615 5 0 0 0 - - -;
#X obj 167 590 * 255;
#X floatatom 167 615 5 0 0 0 - - -;
#X obj 307 424 pack 1 1 1;
#X obj 307 394 sync 3;
#X obj 532 260 metro 1;
#X obj 307 454 speedlim 15;
#X connect 1 0 0 0;
#X connect 2 0 0 0;
#X connect 3 0 0 0;
#X connect 4 0 1 0;
#X connect 5 0 40 0;
#X connect 5 0 47 0;
#X connect 6 0 42 0;
#X connect 6 0 47 1;
#X connect 7 0 44 0;
#X connect 7 0 47 2;
#X connect 8 0 2 0;
#X connect 8 0 9 0;
#X connect 8 0 11 0;
#X connect 8 0 29 0;
#X connect 8 0 25 0;
#X connect 9 0 20 0;
#X connect 9 0 31 0;
#X connect 9 0 47 0;
#X connect 10 0 8 0;
#X connect 11 0 5 0;
#X connect 11 0 7 0;
#X connect 11 0 6 0;
#X connect 12 0 13 0;
#X connect 12 1 14 0;
#X connect 13 0 16 1;
#X connect 14 0 16 0;
#X connect 15 0 27 0;
#X connect 16 0 15 0;
#X connect 16 1 17 0;
#X connect 17 0 15 1;
#X connect 18 0 5 0;
#X connect 18 1 6 0;
#X connect 18 2 7 0;
#X connect 19 0 20 0;
#X connect 20 0 18 0;
#X connect 20 1 18 1;
#X connect 20 2 18 2;
#X connect 21 0 26 0;
#X connect 21 0 48 0;
#X connect 22 0 23 0;
#X connect 23 0 19 0;
#X connect 24 0 25 0;
#X connect 25 0 48 0;
#X connect 26 0 22 0;
#X connect 27 0 5 0;
#X connect 27 1 6 0;
#X connect 27 2 7 0;
#X connect 27 3 19 0;
#X connect 27 4 20 1;
#X connect 27 5 20 2;
#X connect 27 6 21 0;
#X connect 27 7 24 0;
#X connect 27 8 28 0;
#X connect 28 0 31 1;
#X connect 29 0 31 0;
#X connect 30 0 26 0;
#X connect 31 0 30 0;
#X connect 31 1 30 1;
#X connect 40 0 41 0;
#X connect 42 0 43 0;
#X connect 44 0 45 0;
#X connect 46 0 49 0;
#X connect 47 0 46 0;
#X connect 47 1 46 1;
#X connect 47 2 46 2;
#X connect 48 0 23 0;
#X connect 49 0 4 0;
