#N canvas 632 24 755 678 10;
#X obj 61 567 udpsend;
#X msg 130 542 disconnect;
#X obj 61 517 packOSC;
#X msg 61 492 sendtyped /set/rgb fff \$1 \$2 \$3;
#X obj 61 397 sync 3;
#X msg 140 380 mode any;
#X obj 61 471 pack 1 22 22;
#X obj 61 437 hsi2rgb;
#X obj 61 201 snapshot~;
#X obj 160 184 metro 50;
#X obj 160 162 tgl 15 0 empty empty empty 17 7 0 10 -262144 -1 -1 0
1;
#X obj 61 222 * 360;
#X obj 61 283 % 360;
#X obj 61 252 + 0;
#X obj 636 32 adc~;
#X obj 636 156 ave~;
#X obj 638 231 vu 15 120 empty empty -1 -8 0 10 -66577 -1 1 0;
#X obj 637 201 - 100;
#X obj 637 178 env~ 200;
#X obj 62 163 phasor~ 0.125;
#X msg 137 138 0;
#X obj 249 196 line~;
#X obj 250 216 snapshot~;
#X floatatom 250 236 5 0 0 0 - - -;
#X obj 249 153 t b b;
#X obj 249 130 bng 15 250 50 0 empty empty empty 17 7 0 10 -262144
-1 -1;
#X msg 82 346 1;
#X text 95 119 Reset phase to red.;
#X obj 379 456 line~;
#X obj 380 476 snapshot~;
#X floatatom 380 496 5 0 0 0 - - -;
#X obj 379 413 t b b;
#X obj 379 390 bng 15 250 50 0 empty empty empty 17 7 0 10 -262144
-1 -1;
#X msg 441 434 1 0;
#X obj 493 475 metro 50;
#X obj 493 453 tgl 15 0 empty empty empty 17 7 0 10 -262144 -1 -1 0
1;
#X msg 298 174 15 0;
#X obj 278 339 cup;
#X floatatom 276 368 5 0 0 0 - - -;
#X obj 390 291 aubioonset~ 0.8;
#X msg 297 310 0;
#X obj 391 268 lp10_cheb~ 150;
#X msg 249 174 0 50;
#X msg 379 434 0.5 50;
#X obj 442 176 dac~;
#X obj 441 74 delwrite~ cacheL 60;
#X obj 451 94 delwrite~ cacheR 60;
#X obj 442 116 delread~ cacheL 60;
#X obj 452 136 delread~ cacheL 60;
#X msg 134 516 connect 192.168.1.10 2222;
#X connect 1 0 0 0;
#X connect 2 0 0 0;
#X connect 3 0 2 0;
#X connect 4 0 7 0;
#X connect 4 1 7 1;
#X connect 4 2 7 2;
#X connect 5 0 4 0;
#X connect 6 0 3 0;
#X connect 7 0 6 0;
#X connect 7 1 6 1;
#X connect 7 2 6 2;
#X connect 8 0 11 0;
#X connect 9 0 8 0;
#X connect 9 0 22 0;
#X connect 10 0 9 0;
#X connect 11 0 13 0;
#X connect 12 0 4 0;
#X connect 13 0 12 0;
#X connect 14 0 15 0;
#X connect 14 0 45 0;
#X connect 14 1 15 1;
#X connect 14 1 46 0;
#X connect 15 0 18 0;
#X connect 15 0 41 0;
#X connect 17 0 16 1;
#X connect 17 0 16 0;
#X connect 18 0 17 0;
#X connect 19 0 8 0;
#X connect 20 0 19 1;
#X connect 21 0 22 0;
#X connect 22 0 23 0;
#X connect 23 0 13 1;
#X connect 24 0 42 0;
#X connect 24 1 36 0;
#X connect 25 0 24 0;
#X connect 25 0 32 0;
#X connect 25 0 37 0;
#X connect 26 0 4 1;
#X connect 28 0 29 0;
#X connect 29 0 30 0;
#X connect 30 0 4 2;
#X connect 31 0 43 0;
#X connect 31 1 33 0;
#X connect 32 0 31 0;
#X connect 33 0 28 0;
#X connect 34 0 29 0;
#X connect 35 0 34 0;
#X connect 36 0 21 0;
#X connect 37 0 38 0;
#X connect 39 0 25 0;
#X connect 40 0 37 0;
#X connect 41 0 39 0;
#X connect 42 0 21 0;
#X connect 43 0 28 0;
#X connect 47 0 44 0;
#X connect 48 0 44 1;
#X connect 49 0 0 0;
