#N canvas 174 76 640 614 10;
#X msg 134 504 disconnect;
#X obj 23 471 packOSC;
#X obj 23 533 udpsend;
#X floatatom 62 501 5 0 0 0 - - -;
#X msg 134 479 connect localhost 2223;
#X obj 6 20 adc~ 1 2;
#X obj 6 55 +~;
#X obj 6 91 /~ 2;
#X obj -54 181 bng 15 250 50 0 empty empty empty 17 7 0 10 -262144
-1 -1;
#X obj 49 67 dac~ 1 2;
#X obj 23 169 / 100;
#X floatatom 23 246 5 0 0 0 - - -;
#X msg 23 221 set \$1;
#X floatatom 93 249 5 0 0 0 - - -;
#X floatatom 176 249 5 0 0 0 - - -;
#X obj 23 272 range;
#X msg -74 233 0;
#X msg -38 233 1;
#X floatatom 23 301 5 0 0 0 - - -;
#X obj 93 273 + 0.0001;
#X obj 176 273 - 0.0001;
#X obj 93 224 min 0.1;
#X obj 176 224 max 0.3;
#X obj 6 116 aubioonset~ 0.3;
#X obj 23 412 pack 1 22;
#X obj 23 378 sync 2;
#X msg 23 446 sendtyped /event/onset ff \$1 \$2;
#X floatatom 153 359 5 0 0 0 - - -;
#X msg 153 386 set \$1;
#X obj 153 332 + 0;
#X obj 259 248 tgl 15 0 empty empty empty 17 7 0 10 -262144 -1 -1 1
1;
#X msg 191 332 0;
#X floatatom 174 414 5 0 0 0 - - -;
#X floatatom 56 348 5 0 0 0 - - -;
#X obj 218 309 t b b;
#X msg 343 434 set \$1;
#X text 122 35 This audio filter detects an onset using aubio. If one
is detected \, it uses a continually calculated envelope with a 10ms
history-based filter to eliminate spikes to control the brightness.
The brightness is then scaled according to a running min/max calculation.
However \, the min/max function constantly moves back out towards the
defined absolute minimum min and minimum max so that it can dynamically
autoscale. Further \, the number of onsets per second is calculated
\, filtered with a moving average \, and used to control the period
for which flashes occur. This way \, when there are many beats in a
second \, each flash will be faster.;
#X floatatom 412 351 5 0 0 0 - - -;
#X text 355 299 Typical Beats per Second;
#X obj 343 406 clip 1 10;
#X obj 23 143 env~ 1024;
#X obj 23 195 mavg 2;
#X obj 251 286 metro 500;
#X obj 343 378 expr -44/10 * $f1 + 18;
#X obj 395 322 * 2;
#X obj 343 350 mavg 10;
#X connect 0 0 2 0;
#X connect 1 0 2 0;
#X connect 1 1 3 0;
#X connect 4 0 2 0;
#X connect 5 0 6 0;
#X connect 5 0 9 0;
#X connect 5 1 6 1;
#X connect 5 1 9 1;
#X connect 6 0 7 0;
#X connect 7 0 23 0;
#X connect 7 0 40 0;
#X connect 8 0 16 0;
#X connect 8 0 17 0;
#X connect 10 0 41 0;
#X connect 11 0 15 0;
#X connect 12 0 11 0;
#X connect 13 0 15 1;
#X connect 13 0 19 0;
#X connect 14 0 15 2;
#X connect 14 0 20 0;
#X connect 15 0 18 0;
#X connect 16 0 15 3;
#X connect 17 0 15 4;
#X connect 17 0 29 0;
#X connect 18 0 25 0;
#X connect 19 0 21 1;
#X connect 20 0 22 1;
#X connect 21 0 13 0;
#X connect 22 0 14 0;
#X connect 23 0 8 0;
#X connect 23 0 11 0;
#X connect 23 0 33 0;
#X connect 24 0 26 0;
#X connect 25 0 24 0;
#X connect 25 1 24 1;
#X connect 26 0 1 0;
#X connect 27 0 28 0;
#X connect 27 0 29 1;
#X connect 28 0 32 0;
#X connect 29 0 27 0;
#X connect 30 0 4 0;
#X connect 30 0 42 0;
#X connect 31 0 27 0;
#X connect 32 0 45 0;
#X connect 33 0 25 1;
#X connect 34 0 31 0;
#X connect 34 1 32 0;
#X connect 35 0 33 0;
#X connect 39 0 35 0;
#X connect 40 0 10 0;
#X connect 41 0 12 0;
#X connect 41 0 21 0;
#X connect 41 0 22 0;
#X connect 42 0 34 0;
#X connect 43 0 39 0;
#X connect 44 0 37 0;
#X connect 45 0 43 0;
#X connect 45 0 44 0;
