#N canvas 449 391 450 300 10;
#X obj 116 186 hsi2rgb;
#X obj 111 33 vsl 15 128 0 360 0 0 empty empty empty 0 -9 0 10 -262144
-1 -1 0 1;
#X obj 135 33 vsl 15 128 0 1 0 0 empty empty empty 0 -9 0 10 -262144
-1 -1 12700 1;
#X obj 159 33 vsl 15 128 0 1 0 0 empty empty empty 0 -9 0 10 -262144
-1 -1 12700 1;
#X floatatom 90 225 5 0 0 0 - - -;
#X floatatom 128 225 5 0 0 0 - - -;
#X floatatom 167 225 5 0 0 0 - - -;
#X connect 0 0 4 0;
#X connect 0 1 5 0;
#X connect 0 2 6 0;
#X connect 1 0 0 0;
#X connect 2 0 0 1;
#X connect 3 0 0 2;
